<?xml version="1.0" standalone="no"?>
<!DOCTYPE svg PUBLIC "-//W3C//DTD SVG 20010904//EN"
 "http://www.w3.org/TR/2001/REC-SVG-20010904/DTD/svg10.dtd">
<svg version="1.0" xmlns="http://www.w3.org/2000/svg"
 width="500.000000pt" height="500.000000pt" viewBox="0 0 500.000000 500.000000"
 preserveAspectRatio="xMidYMid meet">

<g transform="translate(0.000000,500.000000) scale(0.100000,-0.100000)"
fill="#000000" stroke="none">
<path d="M0 2500 l0 -2500 2158 0 2157 0 0 2497 -1 2498 -2157 3 -2157 2 0
-2500z m2510 1858 c0 -5 9 -23 20 -38 13 -18 16 -31 10 -35 -5 -3 -10 -15 -10
-26 0 -18 2 -18 24 -4 22 14 24 14 30 -1 4 -10 -1 -25 -12 -38 -26 -28 -38
-54 -46 -98 -6 -31 -11 -38 -30 -38 -19 0 -24 8 -35 52 -7 31 -23 64 -38 80
-21 22 -24 30 -14 42 10 12 17 13 31 3 23 -14 37 -3 21 17 -9 11 -7 24 10 59
20 41 39 53 39 25z m-127 -169 c27 -12 57 -58 57 -85 0 -16 -4 -14 -25 9 -15
15 -36 27 -50 27 -21 0 -25 -5 -25 -32 l-1 -33 -14 25 c-21 36 -18 67 7 84 27
19 22 18 51 5z m275 -5 c26 -18 29 -60 7 -90 -13 -18 -14 -17 -12 11 2 25 -2
31 -23 33 -18 3 -32 -5 -52 -29 -21 -25 -28 -29 -28 -16 0 27 27 74 52 91 28
20 28 20 56 0z m-518 -140 c0 -8 -5 -24 -11 -35 -8 -16 -7 -25 5 -38 22 -24
20 -34 -3 -21 -24 12 -68 13 -76 1 -13 -21 112 -86 146 -76 11 4 26 21 35 38
22 43 21 43 43 23 32 -29 86 -25 122 10 18 17 28 22 24 12 -9 -23 -43 -43
-120 -73 -37 -13 -79 -34 -95 -45 -15 -11 -31 -20 -35 -20 -4 0 -32 23 -63 50
-31 28 -62 50 -69 50 -7 0 -20 11 -28 24 -16 24 -99 66 -129 66 -9 0 -16 4
-16 10 0 10 68 25 77 17 3 -4 13 -2 23 3 14 8 19 2 29 -31 10 -35 14 -39 27
-28 10 8 14 22 10 40 -5 27 -4 28 42 32 26 2 50 4 55 5 4 1 7 -5 7 -14z m470
-3 c0 -26 -19 -31 -115 -31 -96 0 -115 5 -115 31 0 18 9 19 115 19 106 0 115
-1 115 -19z m313 9 c41 0 42 -1 42 -32 0 -47 18 -47 30 0 8 30 13 37 25 31 8
-4 36 -11 63 -14 26 -3 47 -9 47 -13 0 -4 -27 -15 -60 -25 -43 -12 -66 -26
-82 -47 -12 -17 -28 -30 -35 -30 -8 0 -36 -20 -62 -45 -53 -49 -61 -52 -94
-31 -12 8 -58 26 -102 41 -79 25 -118 51 -136 90 -6 12 2 7 18 -11 40 -45 64
-55 103 -44 17 5 38 14 44 20 10 7 18 1 32 -25 10 -19 24 -37 30 -39 32 -12
144 42 144 69 0 17 -55 22 -65 5 -3 -5 -11 -10 -17 -10 -6 0 -3 11 6 25 12 19
14 30 6 44 -16 30 -13 54 6 47 9 -3 34 -6 57 -6z m-698 -11 c4 -5 18 -14 31
-19 33 -13 30 -36 -7 -55 -44 -23 -56 -15 -53 36 1 24 2 45 3 47 3 6 21 1 26
-9z m573 -42 c3 -52 0 -54 -52 -32 -41 18 -47 41 -12 55 13 5 27 14 31 20 14
23 30 2 33 -43z m-259 -42 c15 -26 17 -35 7 -33 -7 2 -23 -8 -33 -21 l-20 -25
-12 22 c-6 12 -18 22 -26 22 -18 0 -18 0 1 38 22 45 55 43 83 -3z m-712 -10
c88 -26 143 -71 183 -148 30 -60 34 -78 34 -140 -1 -100 -24 -153 -132 -306
l-17 -24 43 7 c118 18 334 105 483 192 l77 45 53 -31 c108 -64 235 -123 348
-160 120 -41 208 -60 198 -44 -3 5 -25 39 -50 76 -60 89 -88 167 -88 243 0
175 116 293 299 303 100 5 156 -12 209 -67 74 -75 94 -178 50 -261 -28 -54
-61 -79 -112 -86 l-40 -5 38 21 c65 36 94 130 63 203 -56 131 -282 149 -385
31 -40 -45 -65 -130 -56 -194 13 -93 125 -280 168 -280 15 0 12 8 -18 47 -116
152 -138 321 -52 404 49 48 156 75 196 50 8 -5 -4 -7 -31 -4 -64 7 -110 -11
-157 -62 -63 -68 -68 -148 -16 -263 35 -77 49 -91 65 -61 10 18 9 24 -4 31 -9
5 -16 16 -16 25 0 13 9 15 55 9 71 -8 72 8 2 38 -63 28 -76 42 -84 90 -6 38
-2 42 27 26 15 -8 19 -5 24 24 4 19 14 40 23 47 15 13 15 11 0 -18 -43 -82 0
-154 126 -213 83 -39 118 -101 80 -142 -21 -24 -56 -24 -51 0 2 11 13 17 28
17 16 0 26 6 28 18 6 28 -27 57 -64 57 -26 0 -39 -8 -64 -40 -34 -43 -66 -54
-57 -20 4 17 0 20 -24 20 -16 0 -29 -4 -29 -9 0 -6 37 -54 81 -108 230 -276
327 -496 317 -717 -4 -79 -11 -117 -33 -174 -35 -93 -56 -85 -30 12 24 88 17
193 -17 268 -36 78 -92 105 -162 78 -29 -11 -59 -61 -50 -85 6 -14 8 -12 18 7
22 43 76 31 76 -18 0 -30 -25 -54 -57 -54 -67 0 -87 87 -34 141 24 24 38 29
76 29 25 0 56 -5 67 -11 50 -27 47 59 -3 105 -27 24 -37 27 -71 22 -38 -6 -38
-6 -32 20 9 35 -10 24 -32 -18 -13 -25 -20 -29 -44 -25 l-28 6 -6 -177 c-4
-97 -7 -186 -8 -197 -1 -11 2 -29 7 -39 7 -15 5 -18 -6 -14 -11 4 -20 -8 -33
-46 -10 -28 -33 -81 -52 -118 -19 -38 -31 -68 -27 -68 4 0 -2 -7 -13 -15 -10
-8 -14 -15 -8 -15 14 0 82 50 116 86 54 58 72 141 43 198 -19 35 -19 36 1 36
8 0 29 -13 45 -29 34 -34 39 -82 12 -121 l-16 -25 25 23 c46 42 49 -17 4 -66
-26 -30 -88 -62 -118 -62 -16 0 -19 -3 -11 -11 7 -7 39 -10 86 -8 63 4 82 9
127 37 37 23 56 30 63 23 16 -16 -45 -75 -108 -107 -48 -24 -50 -24 -53 -5 -3
19 -5 18 -40 -5 -33 -23 -44 -25 -107 -21 -38 3 -79 7 -90 9 -15 2 -41 -20
-98 -84 -60 -67 -87 -90 -125 -104 -61 -22 -74 -34 -37 -34 107 0 238 -115
211 -185 -12 -32 -44 -16 -74 38 -38 67 -77 100 -142 122 -67 22 -84 14 -29
-14 80 -41 144 -123 137 -174 -5 -34 -39 -27 -63 12 -33 56 -97 122 -137 142
l-37 19 -69 -25 c-83 -30 -109 -31 -182 -5 -71 25 -83 25 -129 -4 -44 -28 -84
-74 -112 -127 -20 -41 -39 -49 -59 -25 -26 33 61 158 132 187 36 15 37 33 1
24 -70 -17 -127 -59 -164 -120 -37 -62 -62 -75 -82 -43 -9 13 -4 27 19 64 36
58 103 102 170 113 l49 7 -50 19 c-39 14 -70 40 -141 113 l-91 95 -33 -11
c-54 -19 -122 -15 -173 12 -35 17 -47 20 -47 10 0 -19 -14 -18 -59 5 -48 25
-101 74 -101 95 0 23 14 20 65 -16 40 -28 54 -32 128 -36 56 -3 87 -1 91 7 5
7 -1 11 -14 11 -63 0 -150 71 -150 123 l0 30 23 -21 c30 -28 42 -28 23 0 -19
27 -20 86 -3 109 13 17 50 39 65 39 6 0 1 -17 -9 -37 -33 -65 -19 -129 45
-200 43 -48 126 -103 126 -84 0 5 -4 11 -9 13 -12 5 -98 187 -106 226 -4 21
-12 32 -20 29 -9 -4 -12 9 -11 46 0 29 0 126 -2 216 l-2 163 -25 -6 c-14 -4
-28 -1 -34 6 -6 7 -22 27 -36 43 l-25 30 6 -30 c6 -31 5 -31 -35 -27 -35 3
-45 0 -72 -27 -23 -24 -30 -38 -28 -63 2 -25 -5 -41 -29 -67 -18 -18 -32 -31
-32 -29 0 16 36 120 52 152 35 69 105 134 161 151 28 8 61 15 74 15 22 0 23 3
23 87 l0 87 -66 -64 c-81 -79 -174 -201 -207 -272 -27 -57 -52 -153 -62 -233
l-6 -50 25 60 c14 32 40 73 58 90 l33 30 -27 -30 c-15 -17 -35 -50 -44 -75
-23 -60 -23 -209 -1 -267 22 -57 3 -65 -22 -9 -54 122 -55 287 -2 445 37 111
89 213 104 204 6 -4 8 0 4 10 -4 10 -2 16 6 14 7 -1 11 6 11 15 -1 10 2 16 7
15 13 -3 189 195 189 212 -1 17 -1 16 -104 -99 -27 -30 -40 -41 -28 -25 11 17
42 55 69 85 62 71 113 136 113 144 0 3 -15 6 -34 6 -29 0 -33 -3 -29 -20 10
-38 -30 -17 -60 31 -23 38 -63 45 -99 19 -15 -11 -28 -16 -28 -11 0 14 57 55
110 79 55 24 107 72 115 104 4 14 19 32 36 42 29 17 29 17 29 -8 0 -45 -21
-75 -66 -92 -45 -17 -82 -49 -70 -61 4 -4 16 -2 26 5 22 13 72 16 84 5 4 -4
-3 -15 -15 -24 -20 -15 -20 -18 -7 -44 l15 -28 30 54 c17 30 34 64 38 77 4 13
9 21 12 18 9 -9 -44 -112 -87 -171 -39 -52 -40 -56 -19 -53 30 4 120 127 148
204 62 165 -18 319 -180 346 -73 12 -125 2 -179 -34 -54 -37 -74 -72 -74 -131
-1 -66 18 -111 58 -138 l31 -21 -35 6 c-67 12 -110 79 -110 171 0 69 19 112
75 169 62 64 172 84 282 51z m-69 -122 c-10 -2 -28 -2 -40 0 -13 2 -5 4 17 4
22 1 32 -1 23 -4z m93 -32 c45 -28 80 -81 78 -118 0 -12 -3 -10 -9 8 -13 44
-43 81 -89 111 -25 15 -40 28 -35 28 6 0 30 -13 55 -29z m842 4 c68 -14 123
-40 131 -61 3 -7 -25 -2 -72 13 -168 54 -355 53 -512 -1 -87 -31 -86 -31 -69
-10 20 24 66 45 133 59 83 18 304 18 389 0z m728 -76 c16 -50 4 -101 -29 -130
l-27 -24 21 25 c42 49 39 125 -8 186 l-22 29 27 -24 c15 -14 32 -42 38 -62z
m-1818 26 c-3 -9 -8 -14 -10 -11 -3 3 -2 9 2 15 9 16 15 13 8 -4z m130 -12
c-25 -17 -30 -42 -12 -60 17 -17 0 -35 -27 -29 -31 8 -32 -16 -1 -37 l22 -16
-23 0 c-33 -1 -72 42 -72 78 0 40 53 79 110 80 l25 0 -22 -16z m1601 1 c61
-29 70 -81 23 -124 -22 -21 -62 -27 -72 -11 -3 5 5 11 17 13 13 2 24 11 26 20
2 12 -2 15 -18 11 -31 -8 -44 16 -22 40 16 18 15 20 -13 43 l-30 24 27 0 c15
0 43 -7 62 -16z m-581 -16 c20 -10 37 -22 37 -28 0 -38 -268 -71 -423 -51 -92
12 -157 33 -157 50 0 10 67 37 110 45 14 2 108 3 210 2 147 -1 193 -5 223 -18z
m-934 -52 c-1 -17 -2 -16 -9 7 -5 16 -12 34 -17 41 -4 6 0 3 10 -7 9 -11 17
-29 16 -41z m-232 22 c-3 -7 -5 -2 -5 12 0 14 2 19 5 13 2 -7 2 -19 0 -25z
m340 -120 c-3 -7 -5 -2 -5 12 0 14 2 19 5 13 2 -7 2 -19 0 -25z m-336 -95
c-46 -45 -64 -100 -52 -156 10 -41 55 -112 80 -127 9 -5 12 -12 8 -16 -10 -10
-55 33 -82 81 -50 88 -36 172 38 226 54 39 56 37 8 -8z m1863 -23 c32 -38 40
-69 33 -122 -8 -62 -93 -175 -115 -153 -3 2 12 23 32 45 45 50 56 77 56 136 0
55 -19 93 -62 129 l-33 26 31 -15 c18 -8 43 -29 58 -46z m-1843 -85 c15 0 25
-7 27 -17 5 -26 -33 -23 -52 4 -9 12 -16 29 -15 38 0 10 3 8 8 -5 5 -12 17
-20 32 -20z m78 -609 c50 -26 67 -100 31 -136 -36 -36 -100 -14 -100 35 0 49
51 61 74 18 l15 -28 1 31 c0 46 -29 76 -81 84 l-44 7 38 2 c21 0 50 -5 66 -13z
m1541 -336 c0 -5 -4 -10 -10 -10 -5 0 -10 5 -10 10 0 6 5 10 10 10 6 0 10 -4
10 -10z m-1400 -150 c13 -18 18 -30 12 -26 -21 13 -72 110 -71 136 0 18 5 10
18 -26 9 -27 28 -65 41 -84z m1396 105 c-3 -13 -10 -36 -16 -49 -10 -28 -87
-116 -101 -116 -5 0 9 18 32 41 42 42 69 93 69 129 0 11 5 20 11 20 7 0 9 -10
5 -25z m-1688 -82 c-2 -10 -10 -18 -18 -18 -8 0 -16 8 -18 18 -2 12 3 17 18
17 15 0 20 -5 18 -17z m1960 0 c5 -17 -26 -29 -40 -15 -6 6 -7 15 -3 22 9 14
37 9 43 -7z m-1538 -212 c0 -4 13 -27 29 -52 32 -47 71 -75 135 -95 l41 -13
-55 0 c-66 -1 -122 23 -167 70 -45 48 -59 90 -37 106 17 12 54 2 54 -16z
m1140 14 c7 -9 10 -25 6 -40 -10 -41 -88 -112 -138 -126 -41 -13 -42 -13 -13
-16 75 -8 99 -16 134 -49 21 -19 44 -48 52 -65 11 -28 10 -33 -6 -45 -27 -20
-34 -18 -53 17 -32 60 -73 99 -123 116 -27 10 -49 21 -49 25 0 5 -17 8 -37 8
l-38 1 50 17 c70 24 110 55 142 110 37 65 51 73 73 47z m-1274 -47 c10 -34 67
-90 109 -109 l40 -18 -42 0 c-57 -1 -85 11 -133 59 -43 43 -51 73 -23 88 22
13 41 5 49 -20z m1405 22 c28 -15 24 -35 -18 -81 -48 -54 -81 -69 -145 -68
l-53 0 53 20 c40 16 59 30 79 62 29 46 54 77 60 77 2 0 13 -5 24 -10z m-1519
-65 c15 -24 43 -53 65 -65 l38 -21 -53 4 c-46 4 -59 10 -93 43 -41 40 -46 53
-27 72 22 22 43 12 70 -33z m1656 17 c7 -48 -68 -102 -140 -102 l-43 0 40 23
c22 12 52 42 68 65 33 49 69 55 75 14z m-1773 -32 c14 -21 37 -46 52 -54 l28
-15 -42 -1 c-33 0 -50 7 -78 31 -39 34 -44 53 -17 68 26 16 30 14 57 -29z
m1876 30 c27 -15 24 -28 -16 -65 l-35 -33 32 -11 c37 -13 78 -49 78 -68 0 -7
-12 -19 -27 -26 -23 -10 -27 -9 -37 8 -6 11 -26 34 -43 52 -21 20 -28 33 -20
36 6 3 -8 6 -33 6 l-45 1 32 21 c18 11 42 36 53 55 23 37 31 40 61 24z m129
-43 c0 -26 -44 -57 -82 -57 -21 0 -38 1 -38 3 0 2 17 22 37 44 33 36 40 39 60
30 13 -5 23 -15 23 -20z m-2130 9 c0 -8 11 -23 25 -34 32 -25 31 -32 0 -32
-79 0 -120 76 -42 79 9 1 17 -5 17 -13z m2210 -31 c48 -58 -113 -117 -169 -61
-15 16 -15 17 1 11 25 -10 81 12 108 40 27 29 42 31 60 10z m-2289 -20 c16
-13 46 -27 67 -31 l37 -7 -29 -12 c-52 -22 -138 2 -153 42 -6 16 12 33 36 33
7 0 26 -11 42 -25z m187 -58 c-18 -17 -37 -40 -43 -50 -13 -22 -55 -12 -55 13
0 29 57 70 96 70 l35 0 -33 -33z m145 13 c-18 -10 -44 -37 -59 -60 -30 -45
-32 -46 -59 -26 -43 32 34 106 110 106 l40 0 -32 -20z m147 -2 c-27 -14 -56
-40 -73 -66 -22 -32 -35 -42 -51 -40 -49 7 -16 86 48 114 17 7 51 13 76 14
l44 0 -44 -22z m188 7 c-59 -22 -87 -45 -124 -102 -30 -47 -37 -52 -54 -43
-27 14 -25 38 6 84 32 47 92 76 159 75 l50 0 -37 -14z m1174 -10 c15 -11 35
-35 45 -53 17 -32 17 -34 -1 -48 -28 -20 -33 -18 -60 24 -29 46 -52 67 -96 87
l-35 16 60 -4 c40 -2 70 -10 87 -22z m137 -1 c45 -37 54 -59 35 -78 -24 -25
-41 -19 -64 23 -12 21 -39 48 -59 59 l-36 22 47 0 c36 0 54 -6 77 -26z m483
-406 c47 -24 52 -106 14 -217 -41 -119 -30 -153 29 -91 35 36 45 38 45 6 0
-78 -137 -140 -177 -80 -16 24 -16 31 -2 84 l15 58 -55 5 c-30 3 -57 5 -59 3
-1 -2 -6 -39 -10 -82 -6 -70 -10 -80 -33 -93 -43 -24 -59 -9 -59 51 0 29 4 68
10 86 l9 34 -39 -7 c-60 -10 -54 20 10 49 40 19 55 33 76 72 62 118 146 164
226 122z m-2494 -5 c32 -28 37 -74 12 -106 -12 -15 -29 -27 -38 -27 -11 0 -7
-9 16 -33 99 -102 31 -237 -121 -237 -61 0 -98 32 -104 90 -5 52 24 110 55
110 27 0 30 -6 22 -49 -10 -57 2 -81 44 -81 25 0 39 7 50 22 25 36 19 56 -34
112 -57 60 -71 95 -58 144 16 61 111 94 156 55z m465 11 c3 -3 1 -17 -5 -30
-10 -22 -17 -24 -78 -24 l-66 0 -18 -112 c-9 -62 -20 -142 -24 -178 l-7 -65
-37 -3 c-38 -3 -38 -3 -38 33 0 48 36 225 57 276 8 22 13 42 10 45 -2 3 -32
-2 -65 -10 -79 -21 -85 -21 -70 3 16 26 60 51 110 60 50 10 222 14 231 5z
m314 -9 c48 -34 49 -117 3 -235 -21 -54 -26 -110 -10 -110 5 0 28 16 50 36
l40 36 0 -25 c0 -55 -88 -117 -145 -103 -32 8 -40 41 -26 106 6 28 11 55 11
60 0 6 -26 10 -59 10 l-58 0 -7 -46 c-3 -26 -6 -61 -6 -79 0 -32 -10 -47 -41
-58 -40 -14 -52 28 -35 127 l8 49 -36 -6 c-55 -9 -47 20 12 45 39 17 53 30 75
72 32 59 50 82 91 114 34 26 101 30 133 7z m210 0 c33 -23 36 -59 13 -149 -26
-100 -24 -150 5 -153 41 -5 58 23 91 154 35 132 48 158 78 147 27 -10 35 -44
21 -94 -18 -63 -47 -231 -42 -237 7 -6 47 15 74 40 20 18 23 18 29 3 9 -22
-20 -53 -78 -82 -34 -17 -48 -31 -52 -52 -17 -74 -81 -132 -148 -132 -52 0
-85 17 -99 53 -12 28 -11 32 18 56 17 14 59 37 92 50 45 18 61 29 61 43 0 15
-3 17 -19 8 -31 -16 -76 -12 -105 11 -33 26 -35 80 -6 164 22 64 26 110 9 120
-5 4 -24 1 -40 -5 -36 -15 -42 -11 -26 20 23 45 84 63 124 35z m602 -3 c61
-30 50 -40 -44 -38 l-86 1 -34 -37 c-52 -56 -68 -137 -41 -203 17 -40 42 -55
93 -55 48 0 98 26 123 65 l20 30 -35 18 c-40 20 -57 65 -42 110 27 79 137 51
137 -36 0 -24 3 -28 20 -24 29 8 26 -29 -4 -49 -14 -8 -28 -29 -31 -46 -9 -39
-70 -107 -112 -125 -46 -19 -141 -17 -183 5 -56 28 -80 73 -80 151 0 143 94
250 220 251 25 0 60 -8 79 -18z m444 3 c47 -20 67 -50 67 -103 0 -39 -5 -50
-41 -85 l-41 -42 16 -52 c9 -29 21 -55 26 -58 5 -3 27 10 48 30 22 19 42 35
46 35 3 0 6 -12 6 -26 0 -57 -113 -126 -159 -97 -10 6 -22 41 -31 86 -10 51
-21 81 -34 90 -27 20 -14 47 22 47 34 0 50 15 58 56 9 48 -23 79 -83 79 -27 0
-68 -9 -91 -19 -23 -11 -45 -16 -49 -13 -10 10 37 57 72 73 40 18 124 17 168
-1z m-118 -84 c3 -5 -4 -50 -15 -100 -11 -50 -20 -115 -20 -146 0 -47 -3 -57
-25 -71 -53 -35 -73 0 -57 98 23 132 91 260 117 219z m-613 -561 c13 -21 48
-28 48 -9 0 6 12 9 28 7 35 -4 46 -48 12 -48 -37 0 -55 -84 -24 -115 22 -21
44 -3 44 36 0 19 5 29 15 29 11 0 15 -11 15 -37 0 -87 -93 -101 -120 -18 -11
32 -9 55 5 105 3 10 -3 15 -19 16 -19 1 -25 -4 -28 -27 -3 -21 0 -29 11 -29
13 -1 13 -3 -2 -11 -16 -9 -18 -19 -12 -61 5 -37 4 -53 -6 -59 -24 -14 -37 9
-31 56 2 25 0 45 -5 45 -10 0 -1 93 12 123 10 23 42 22 57 -3z m473 0 c0 -8
-15 -19 -34 -24 l-33 -9 3 -86 c4 -81 3 -86 -16 -86 -18 0 -20 8 -23 82 l-3
83 -32 -3 c-26 -2 -32 2 -32 18 0 16 11 21 65 31 81 14 105 13 105 -6z m845 4
c0 -9 -13 -21 -30 -27 l-30 -11 0 -89 c0 -86 -1 -88 -22 -85 -21 3 -23 9 -26
84 l-3 80 -29 -4 c-21 -3 -32 1 -36 12 -8 20 13 47 30 40 6 -2 30 0 51 5 64
15 95 13 95 -5z m-2711 -91 c-22 -117 -33 -145 -53 -137 -15 6 -56 101 -56
129 0 35 -18 11 -29 -39 -20 -89 -62 -99 -77 -17 -4 20 -16 56 -26 80 -15 35
-16 46 -6 53 34 21 50 1 64 -77 l7 -40 16 47 c9 26 21 53 28 59 18 18 40 -5
48 -49 3 -20 12 -48 20 -62 13 -24 13 -24 24 20 17 67 42 130 50 130 5 0 0
-44 -10 -97z m2821 54 c0 -14 11 -28 30 -39 23 -13 30 -24 30 -48 0 -71 -101
-119 -146 -69 -24 27 -9 52 36 59 46 7 48 26 6 44 -43 18 -49 56 -14 80 27 19
58 5 58 -27z m-2760 -13 c3 -26 11 -40 23 -42 13 -3 17 3 17 25 0 15 5 35 10
43 19 28 30 -10 30 -103 0 -79 -2 -88 -17 -85 -14 2 -19 15 -21 51 -4 63 -28
64 -38 2 -13 -91 -44 -34 -44 80 1 81 31 103 40 29z m225 37 c19 -8 19 -8 -2
-19 -12 -7 -31 -12 -42 -12 -16 0 -21 -6 -21 -25 0 -20 5 -25 25 -25 16 0 25
-6 25 -15 0 -10 -10 -15 -30 -15 -25 0 -30 -4 -30 -25 0 -21 5 -25 29 -25 41
0 48 -26 9 -34 -47 -9 -75 14 -80 66 -3 24 -1 49 5 55 5 7 7 21 4 32 -11 44
45 66 108 42z m135 -10 c14 -28 13 -38 -11 -62 -18 -18 -19 -24 -9 -50 19 -45
56 -79 87 -79 26 -1 27 -2 10 -14 -10 -8 -27 -12 -37 -9 -25 7 -80 68 -81 91
-1 9 -5 -1 -8 -23 -4 -26 -11 -40 -21 -40 -12 0 -16 17 -18 82 -2 46 2 92 8
103 14 27 65 27 80 1z m170 9 c13 -9 13 -11 0 -20 -8 -5 -25 -10 -36 -10 -20
0 -34 -17 -34 -41 0 -5 11 -9 25 -9 35 0 33 -28 -2 -32 -20 -2 -28 -9 -28 -23
0 -15 8 -21 33 -23 38 -4 43 -27 8 -36 -34 -8 -73 8 -81 35 -7 21 2 146 12
162 6 10 85 8 103 -3z m309 -8 c13 -25 -4 -42 -41 -42 -18 0 -33 -8 -44 -25
-31 -48 2 -89 56 -68 28 11 30 10 30 -13 0 -35 -33 -49 -81 -35 -46 14 -59 35
-59 91 0 34 6 48 34 76 39 39 89 47 105 16z m115 12 c26 -10 20 -44 -8 -44
-28 0 -36 -16 -36 -70 0 -28 5 -42 18 -49 25 -13 42 4 42 40 0 41 18 45 28 7
l8 -32 13 49 c15 61 32 97 48 102 16 6 43 -49 43 -89 0 -54 16 -66 24 -18 8
52 32 110 45 110 26 0 39 -34 46 -117 3 -49 10 -98 16 -111 6 -16 6 -21 -1
-17 -20 12 -39 63 -46 123 -8 72 -19 73 -28 3 -4 -27 -15 -60 -25 -72 -16 -20
-21 -21 -35 -10 -8 7 -19 35 -22 62 -8 57 -19 56 -27 -2 -7 -52 -30 -78 -55
-63 -11 8 -22 8 -33 1 -25 -16 -67 0 -84 33 -20 39 -19 76 5 128 19 41 32 48
64 36z m634 -6 c19 -19 14 -55 -9 -72 -20 -13 -21 -18 -9 -46 15 -37 64 -80
92 -80 17 0 18 -2 8 -15 -23 -27 -75 1 -111 60 l-19 30 0 -32 c0 -35 -16 -51
-32 -35 -13 13 -11 158 3 184 11 21 59 24 77 6z m426 -10 c8 -13 18 -45 22
-73 l7 -50 17 63 c21 75 33 91 58 76 18 -12 26 -45 39 -168 9 -75 8 -77 -8
-57 -18 21 -38 99 -40 149 0 16 -8 -1 -18 -41 -10 -37 -23 -73 -30 -80 -21
-21 -45 6 -57 64 l-11 54 -8 -45 c-10 -59 -22 -80 -45 -80 -29 0 -31 13 -10
69 11 28 20 61 20 74 0 25 26 67 40 67 5 0 16 -10 24 -22z m280 16 c28 -11 17
-24 -24 -30 -30 -5 -40 -11 -40 -25 0 -11 9 -19 22 -21 36 -5 35 -37 -1 -44
-42 -9 -44 -44 -2 -44 31 0 49 -25 25 -34 -31 -12 -64 -6 -85 15 -20 20 -21
28 -15 97 4 42 9 79 12 84 6 9 85 11 108 2z m162 -5 c8 -14 -14 -29 -43 -29
-13 0 -23 -2 -23 -4 0 -2 -3 -11 -6 -20 -5 -12 0 -16 19 -16 28 0 41 -22 24
-39 -6 -6 -22 -11 -35 -11 -38 0 -24 -34 16 -38 55 -5 36 -42 -22 -42 -41 0
-56 21 -56 80 0 72 3 102 13 118 10 15 103 16 113 1z m-2506 -223 c0 -11 -19
-15 -25 -6 -3 5 1 10 9 10 9 0 16 -2 16 -4z m755 -135 c0 -8 -15 -19 -32 -23
l-33 -9 0 -90 c0 -81 -2 -90 -17 -87 -15 3 -18 16 -21 86 l-3 82 -32 -3 c-26
-2 -32 2 -32 18 0 16 11 21 65 31 81 14 105 13 105 -5z m695 -90 c-22 -123
-28 -141 -44 -141 -21 0 -32 19 -53 89 -22 69 -24 69 -43 -1 -14 -55 -35 -77
-52 -60 -15 15 -68 174 -62 184 3 4 14 8 25 8 21 0 34 -24 45 -85 l7 -40 16
45 c34 95 53 95 82 -2 22 -75 30 -76 43 -6 9 48 34 108 45 108 5 0 0 -45 -9
-99z m-632 63 c7 -50 14 -64 27 -64 10 0 15 10 15 28 0 15 5 34 10 42 19 28
30 -10 30 -103 0 -79 -2 -88 -17 -85 -14 2 -19 15 -21 51 -4 62 -27 64 -36 2
-9 -58 -31 -59 -40 -2 -8 48 -8 113 0 140 7 23 28 17 32 -9z m226 20 c28 -11
17 -24 -24 -30 -34 -6 -40 -10 -40 -30 0 -19 5 -24 25 -24 16 0 25 -6 25 -15
0 -10 -10 -15 -30 -15 -25 0 -30 -4 -30 -25 0 -21 5 -25 29 -25 16 0 31 -6 34
-14 8 -20 -40 -30 -75 -15 -24 10 -28 17 -30 53 0 22 0 48 1 56 2 8 4 26 5 40
1 14 5 31 9 38 8 12 73 17 101 6z m514 -21 c3 -18 -2 -23 -18 -23 -37 0 -55
-84 -24 -115 21 -21 42 -4 46 38 4 45 22 40 26 -6 7 -90 -90 -107 -118 -22
-21 65 15 158 60 153 17 -2 26 -10 28 -25z m150 15 c19 -19 14 -55 -9 -72 -20
-13 -21 -18 -9 -46 13 -31 63 -80 82 -80 7 0 7 4 0 13 -8 9 -8 26 -1 57 6 25
8 61 6 81 -6 44 4 62 29 57 17 -3 19 -11 16 -63 -2 -33 -5 -68 -8 -77 -4 -12
2 -17 23 -20 41 -4 39 -42 -2 -46 -16 -2 -37 -10 -46 -18 -27 -25 -83 9 -117
71 -10 18 -11 17 -12 -12 0 -35 -16 -51 -32 -35 -13 13 -11 158 3 184 11 21
59 24 77 6z m290 -38 c28 -55 28 -100 1 -134 -22 -28 -48 -33 -80 -16 -23 13
-26 57 -4 57 8 0 15 -4 15 -9 0 -15 38 -8 44 8 11 28 6 69 -10 92 -22 32 -34
27 -34 -12 0 -38 -8 -66 -20 -66 -13 0 -19 69 -8 101 9 26 15 30 42 27 25 -2
35 -11 54 -48z m-547 -193 c-13 -13 -26 -3 -16 12 3 6 11 8 17 5 6 -4 6 -10
-1 -17z"/>
<path d="M2425 3444 c-134 -82 -351 -163 -475 -178 -30 -4 -67 -9 -82 -12
l-28 -6 0 -341 c0 -367 5 -418 53 -537 89 -220 276 -387 527 -469 82 -27 89
-27 191 12 296 113 480 321 535 605 10 54 14 161 14 402 l0 327 -62 7 c-93 11
-182 33 -278 70 -93 36 -240 108 -282 137 -36 26 -44 24 -113 -17z m123 -257
c30 -3 50 -1 54 6 5 7 8 8 8 2 0 -6 30 -16 67 -23 l67 -13 23 28 24 28 -15
-32 c-9 -17 -23 -87 -32 -155 -8 -67 -16 -124 -17 -125 -1 -1 -15 -3 -31 -5
l-28 -3 -3 68 c-4 110 -35 137 -162 139 -69 1 -115 -16 -153 -57 -20 -21 -25
-37 -25 -77 0 -47 3 -53 46 -92 25 -22 99 -70 165 -106 138 -75 206 -133 230
-196 26 -69 5 -153 -53 -216 -15 -16 -22 -31 -18 -39 5 -7 4 -10 -2 -6 -16 10
-103 -42 -103 -61 0 -14 -2 -14 -9 -3 -7 11 -18 11 -57 2 -64 -14 -127 -15
-189 -3 -27 6 -53 8 -58 5 -4 -2 -19 -27 -33 -55 -14 -27 -28 -47 -31 -44 -3
3 8 29 25 56 l32 51 -34 14 c-19 8 -36 18 -39 22 -2 5 1 64 7 133 l11 125 31
3 31 3 5 -78 c3 -43 11 -90 18 -105 19 -40 71 -60 154 -61 139 0 224 79 196
184 -14 50 -54 83 -194 159 -190 104 -246 166 -246 271 0 51 -3 56 -52 109
l-53 55 55 -51 55 -52 31 48 31 48 -35 56 c-19 32 -32 60 -29 63 3 3 20 -20
38 -51 17 -31 34 -56 38 -54 3 2 25 14 49 28 36 21 42 29 38 50 l-5 25 11 -23
c8 -15 17 -21 27 -17 9 4 31 9 49 12 31 5 32 7 34 57 l2 51 3 -46 4 -47 47 -5z
m282 -142 c-24 -25 -46 -45 -49 -45 -3 0 15 20 39 45 24 25 46 45 49 45 3 0
-15 -20 -39 -45z m-772 -100 c34 -21 62 -40 62 -42 0 -2 -31 13 -70 33 -38 21
-70 42 -70 47 0 10 -3 11 78 -38z m957 35 c-7 -12 -105 -63 -105 -55 0 4 100
65 108 65 2 0 0 -5 -3 -10z m0 -149 c-6 -5 -26 -11 -45 -15 -35 -5 -35 -5 5 9
50 17 51 17 40 6z m-998 -17 c-3 -3 -12 -4 -19 -1 -8 3 -5 6 6 6 11 1 17 -2
13 -5z m-24 -131 c-24 -2 -62 -2 -85 0 -24 2 -5 4 42 4 47 0 66 -2 43 -4z
m1100 0 c-23 -2 -64 -2 -90 0 -26 2 -7 3 42 3 50 0 71 -1 48 -3z m-1066 -129
c-3 -3 -12 -4 -19 -1 -8 3 -5 6 6 6 11 1 17 -2 13 -5z m990 -20 c-3 -3 -12 -4
-19 -1 -8 3 -5 6 6 6 11 1 17 -2 13 -5z m-887 -69 c0 -2 -10 -9 -22 -15 -22
-11 -22 -10 -4 4 21 17 26 19 26 11z m885 -76 c5 -5 5 -9 0 -9 -11 0 -145 80
-145 87 0 5 130 -65 145 -78z m-955 37 c0 -7 -72 -47 -77 -42 -3 2 12 14 34
25 42 22 43 23 43 17z m120 -79 c0 -2 -17 -19 -37 -38 l-38 -34 34 38 c33 34
41 42 41 34z m682 -61 c10 -19 8 -18 -16 3 -14 14 -26 29 -26 34 0 13 29 -12
42 -37z m-108 -65 c36 -60 48 -93 20 -56 -18 23 -66 115 -61 115 2 0 21 -27
41 -59z m-157 -13 c-3 -8 -6 -5 -6 6 -1 11 2 17 5 13 3 -3 4 -12 1 -19z m-213
-22 c-3 -15 -8 -25 -11 -23 -2 3 -1 17 3 31 3 15 8 25 11 23 2 -3 1 -17 -3
-31z m113 -78 c-2 -18 -4 -6 -4 27 0 33 2 48 4 33 2 -15 2 -42 0 -60z m110 60
c-3 -8 -6 -5 -6 6 -1 11 2 17 5 13 3 -3 4 -12 1 -19z"/>
<path d="M3220 3291 c0 -7 33 -49 73 -94 39 -45 85 -98 100 -117 l29 -35 -19
33 c-10 19 -51 73 -92 120 -93 111 -91 109 -91 93z"/>
<path d="M3220 3109 l0 -86 47 -7 c105 -14 177 -79 229 -204 13 -31 24 -50 24
-42 0 30 -70 162 -124 233 -30 40 -82 99 -115 132 l-61 59 0 -85z"/>
<path d="M1741 2957 c2 -1 12 -9 22 -16 14 -12 17 -11 17 3 0 10 -8 16 -22 16
-12 0 -19 -1 -17 -3z"/>
<path d="M3220 2944 c0 -14 3 -15 18 -3 9 7 19 15 21 16 2 2 -5 3 -17 3 -14 0
-22 -6 -22 -16z"/>
<path d="M3484 2722 c14 -16 36 -51 47 -78 l20 -49 -5 40 c-3 22 -6 49 -6 60
0 14 -3 16 -8 7 -6 -9 -14 -4 -30 18 -13 16 -28 30 -34 30 -7 0 1 -13 16 -28z"/>
<path d="M3521 2734 c0 -11 3 -14 6 -6 3 7 2 16 -1 19 -3 4 -6 -2 -5 -13z"/>
<path d="M3748 1408 c-28 -10 -68 -63 -68 -92 0 -13 11 -16 59 -16 52 0 59 2
65 23 18 68 -4 103 -56 85z"/>
<path d="M1273 1433 c-20 -8 -15 -38 11 -62 l24 -22 16 22 c34 48 4 85 -51 62z"/>
<path d="M2018 1402 c-26 -15 -58 -66 -58 -91 0 -7 24 -11 64 -11 l64 0 7 39
c12 72 -21 99 -77 63z"/>
<path d="M2333 1023 c-24 -8 -43 -20 -43 -27 0 -32 57 -49 78 -23 6 7 15 25
21 40 12 32 7 33 -56 10z"/>
<path d="M2970 1336 c0 -14 5 -28 10 -31 6 -4 10 7 10 24 0 17 -4 31 -10 31
-5 0 -10 -11 -10 -24z"/>
<path d="M1637 793 c-4 -3 -7 -15 -7 -25 0 -22 26 -24 34 -2 10 25 -10 45 -27
27z"/>
<path d="M2866 784 c-9 -24 -7 -34 8 -34 16 0 29 27 20 41 -8 14 -21 11 -28
-7z"/>
<path d="M2936 414 c-9 -24 -7 -34 8 -34 16 0 29 27 20 41 -8 14 -21 11 -28
-7z"/>
</g>
</svg>
